<?xml version="1.0" encoding="iso-8859-1"?>
<!-- Generator: Adobe Illustrator 19.0.0, SVG Export Plug-In . SVG Version: 6.00 Build 0)  -->
<svg version="1.1" id="Layer_1" xmlns="http://www.w3.org/2000/svg" xmlns:xlink="http://www.w3.org/1999/xlink" x="0px" y="0px"
	 viewBox="0 0 512 512" style="enable-background:new 0 0 512 512;" xml:space="preserve">
<path style="fill:#F97177;" d="M256.002,66.151c0-13.763,9.476-24.919,21.165-24.919c14.611,0,26.457,13.946,26.457,31.15
	c0,21.504-25.483,42.528-47.622,53.846c-22.139-11.318-47.622-32.342-47.622-53.846c0-17.204,11.845-31.15,26.457-31.15
	C246.527,41.231,256.002,52.388,256.002,66.151z"/>
<g>
	<path style="fill:#F9EFAA;" d="M503.529,310.753c0,88.374-71.634,160.008-159.996,160.008c-32.304,0-62.372-9.578-87.526-26.058
		c-15.203-9.951-28.622-22.432-39.646-36.856c-20.58-26.916-32.824-60.587-32.824-97.094c0-13.983,1.796-27.538,5.173-40.471
		c5.422-20.828,14.955-40.008,27.651-56.623c15.779,7.794,29.379,19.315,39.646,33.4c-3.185,4.371-6.043,8.98-8.562,13.814
		c-7.76,14.921-12.154,31.886-12.154,49.88c0,23.81,7.692,45.825,20.715,63.694c10.279,14.096,23.878,25.617,39.635,33.4
		c10.776,5.331,22.568,8.923,35.004,10.403c4.224,0.497,8.528,0.757,12.888,0.757c16.389,0,31.932-3.648,45.847-10.166
		c36.868-17.259,62.395-54.691,62.395-98.087c0-59.785-48.456-108.242-108.242-108.242c-17.191,0-33.456,4.01-47.892,11.148
		c-11.013-14.413-24.42-26.894-39.635-36.856c25.154-16.468,55.222-26.047,87.526-26.047
		C431.894,150.756,503.529,222.391,503.529,310.753z"/>
	<path style="fill:#F9EFAA;" d="M328.476,310.753c0,24.228-5.388,47.214-15.045,67.794c-4.88,10.437-10.866,20.252-17.79,29.3
		c-15.757-7.782-29.356-19.303-39.635-33.4c6.337-8.686,11.419-18.355,14.944-28.735c0-0.011,0-0.011,0-0.011
		c3.75-10.968,5.772-22.715,5.772-34.947c0-23.81-7.681-45.825-20.715-63.694c-10.267-14.085-23.867-25.606-39.646-33.4
		c-14.424-7.139-30.689-11.148-47.88-11.148c-59.785,0-108.253,48.456-108.253,108.242s48.468,108.253,108.253,108.253
		c17.191,0,33.456-4.021,47.88-11.16c11.024,14.424,24.443,26.905,39.646,36.856c-25.154,16.48-55.222,26.058-87.526,26.058
		c-88.374,0-160.008-71.634-160.008-160.008c0-88.362,71.634-159.996,160.008-159.996c32.304,0,62.372,9.578,87.526,26.047
		c15.215,9.962,28.622,22.444,39.635,36.856C316.243,240.587,328.476,274.247,328.476,310.753z"/>
</g>
<g>
	<path style="fill:#E5DB9E;" d="M256.006,247.059c-3.185,4.371-6.043,8.98-8.562,13.814c-4.224-0.497-8.528-0.757-12.888-0.757
		c-16.389,0-31.932,3.637-45.847,10.166c5.422-20.828,14.955-40.008,27.651-56.623C232.139,221.453,245.738,232.974,256.006,247.059
		z"/>
	<path style="fill:#E5DB9E;" d="M313.43,378.547c-4.88,10.437-10.866,20.252-17.79,29.3c-15.757-7.782-29.356-19.303-39.635-33.4
		c6.337-8.686,11.419-18.355,14.944-28.735C271.141,346.209,283.487,378.547,313.43,378.547z"/>
</g>
<path d="M252.146,133.774c1.211,0.619,2.534,0.928,3.856,0.928c1.323,0,2.645-0.309,3.856-0.928
	c13.098-6.696,25.285-15.478,34.318-24.727c3.269-3.347,3.204-8.711-0.142-11.98c-3.349-3.269-8.712-3.204-11.98,0.142
	c-6.903,7.07-16.041,13.87-26.048,19.421c-19.532-10.872-39.155-28.57-39.155-44.246c0-12.505,8.068-22.678,17.985-22.678
	c6.881,0,12.694,7.532,12.694,16.448c0,4.678,3.792,8.471,8.471,8.471c4.68,0,8.471-3.793,8.471-8.471
	c0-8.916,5.813-16.448,12.694-16.448c9.917,0,17.985,10.174,17.985,22.678c0,1.846-0.278,3.779-0.827,5.748
	c-1.256,4.507,1.379,9.178,5.886,10.436c4.505,1.255,9.177-1.379,10.435-5.885c0.962-3.451,1.449-6.915,1.449-10.299
	c0-21.847-15.669-39.621-34.928-39.621c-8.283,0-15.783,3.847-21.165,10.04c-5.383-6.192-12.882-10.04-21.165-10.04
	c-19.259,0-34.928,17.774-34.928,39.621c0,12.149,6.029,24.483,17.919,36.662C226.861,118.295,239.048,127.077,252.146,133.774z"/>
<path d="M452.479,416.079c-28.814,29.801-67.506,46.214-108.946,46.214c-29.587,0-58.247-8.531-82.888-24.676
	c-14.434-9.447-27.07-21.193-37.555-34.913c-20.335-26.595-31.083-58.389-31.083-91.947c0-24.594,6.033-49.019,17.444-70.636
	c2.184-4.137,0.601-9.262-3.537-11.447c-4.14-2.187-9.262-0.601-11.448,3.537c-12.694,24.044-19.404,51.205-19.404,78.546
	c0,37.31,11.953,72.664,34.566,102.237c8.949,11.709,19.319,22.11,30.908,31.067c-22.043,11.948-46.707,18.232-72.059,18.232
	c-83.556,0-151.535-67.979-151.535-151.536c0-44.457,19.425-86.51,53.298-115.376c3.561-3.035,3.987-8.381,0.953-11.942
	c-3.035-3.56-8.382-3.988-11.941-0.953C21.596,214.577,0,261.33,0,310.757c0,92.9,75.58,168.479,168.479,168.479
	c31.055,0,61.194-8.468,87.526-24.521c26.334,16.053,56.471,24.521,87.526,24.521c46.074,0,89.091-18.247,121.125-51.381
	c3.253-3.364,3.163-8.727-0.202-11.979C461.093,412.624,455.728,412.716,452.479,416.079z"/>
<path d="M343.533,142.29c-31.048,0-61.188,8.465-87.526,24.512c-26.338-16.047-56.478-24.512-87.526-24.512
	c-28.579,0-56.814,7.287-81.653,21.073c-4.091,2.27-5.566,7.428-3.296,11.518c2.27,4.091,7.425,5.566,11.518,3.296
	c22.331-12.393,47.722-18.944,73.431-18.944c29.58,0,58.243,8.528,82.886,24.662c14.431,9.45,27.063,21.195,37.548,34.917
	c20.34,26.584,31.091,58.379,31.091,91.945c0,22.445-4.79,44.046-14.236,64.202c-1.986,4.237-0.162,9.28,4.075,11.266
	c1.162,0.544,2.384,0.803,3.59,0.803c3.184,0,6.236-1.805,7.676-4.878c10.51-22.424,15.838-46.444,15.838-71.392
	c0-37.32-11.957-72.674-34.576-102.237c-8.944-11.705-19.309-22.105-30.896-31.064c22.047-11.944,46.711-18.224,72.058-18.224
	c83.552,0,151.524,67.973,151.524,151.525c0,30.082-8.791,59.147-25.423,84.05c-2.598,3.891-1.551,9.151,2.34,11.749
	c1.445,0.966,3.08,1.428,4.697,1.428c2.735,0,5.419-1.323,7.053-3.767C502.223,376.518,512,344.2,512,310.756
	C512,217.863,436.426,142.29,343.533,142.29z"/>
<path d="M262.852,242.074c-11.099-15.226-25.878-27.677-42.734-36.002c-16.126-7.981-33.499-12.027-51.638-12.027
	c-64.361,0-116.725,52.358-116.725,116.713c0,64.362,52.362,116.725,116.725,116.725c9.094,0,18.154-1.054,26.93-3.13
	c4.552-1.078,7.369-5.642,6.293-10.195c-1.079-4.553-5.64-7.366-10.195-6.293c-7.499,1.775-15.246,2.675-23.028,2.675
	c-55.02,0-99.782-44.762-99.782-99.782c0-55.014,44.762-99.77,99.782-99.77c15.508,0,30.354,3.455,44.129,10.273
	c12.653,6.25,23.935,15.217,32.925,26.122c-12.251,18.882-18.714,40.654-18.714,63.375c0,24.88,7.726,48.63,22.341,68.685
	c11.108,15.234,25.883,27.685,42.725,36.002c16.151,7.988,33.528,12.037,51.647,12.037c64.357,0,116.713-52.362,116.713-116.725
	c0-64.357-52.358-116.713-116.713-116.713c-9.093,0-18.152,1.052-26.928,3.124c-4.553,1.075-7.371,5.639-6.296,10.192
	c1.075,4.553,5.64,7.371,10.192,6.297c7.5-1.771,15.249-2.67,23.032-2.67c55.013,0,99.771,44.757,99.771,99.77
	c0,55.02-44.757,99.782-99.771,99.782c-15.491,0-30.341-3.46-44.141-10.283c-12.64-6.243-23.918-15.21-32.912-26.12
	c12.251-18.87,18.713-40.641,18.713-63.377C285.192,285.861,277.467,262.109,262.852,242.074z M256.008,262.841
	c8.032,14.606,12.242,30.945,12.242,47.917c0,16.971-4.21,33.311-12.242,47.917c-8.034-14.615-12.246-30.954-12.246-47.917
	C243.762,293.795,247.974,277.456,256.008,262.841z"/>
<g>
</g>
<g>
</g>
<g>
</g>
<g>
</g>
<g>
</g>
<g>
</g>
<g>
</g>
<g>
</g>
<g>
</g>
<g>
</g>
<g>
</g>
<g>
</g>
<g>
</g>
<g>
</g>
<g>
</g>
</svg>
